<?xml version="1.0" encoding="utf-8"?>
<!-- Generator: Adobe Illustrator 24.2.0, SVG Export Plug-In . SVG Version: 6.00 Build 0)  -->
<svg version="1.1" id="图层_1" xmlns="http://www.w3.org/2000/svg" xmlns:xlink="http://www.w3.org/1999/xlink" x="0px" y="0px"
	 viewBox="0 0 700 700" style="enable-background:new 0 0 700 700;" xml:space="preserve">
<style type="text/css">
	.st0{fill:#FFBD00;}
	.st1{fill:#FFFFFF;}
	.st2{fill:#155BCD;}
	.st3{fill:#E5E6EB;}
	.st4{fill:#84A9FF;}
	.st5{fill:#FF654F;}
	.st6{fill:#DA5544;}
	.st7{fill:#050F64;}
	.st8{fill:#EA8096;}
	.st9{fill:#F5BDC8;}
	.st10{opacity:0;}
</style>
<g>
	<g>
		<g>
			<g>
				<g>
					<circle class="st0" cx="459.3" cy="290.3" r="209.3"/>
				</g>
			</g>
		</g>
		<g>
			<g>
				<g>
					<circle class="st1" cx="459.3" cy="290.3" r="184.1"/>
				</g>
			</g>
		</g>
		<g>
			<g>
				<g>
					
						<rect x="455.8" y="116.4" transform="matrix(-1 -1.224647e-16 1.224647e-16 -1 918.6773 262.0856)" class="st2" width="7.1" height="29.4"/>
				</g>
			</g>
		</g>
		<g>
			<g>
				<g>
					
						<rect x="615" y="275.6" transform="matrix(6.123234e-17 -1 1 6.123234e-17 328.2959 908.8032)" class="st2" width="7.1" height="29.4"/>
				</g>
			</g>
		</g>
		<g>
			<g>
				<g>
					<rect x="455.8" y="434.8" class="st2" width="7.1" height="29.4"/>
				</g>
			</g>
		</g>
		<g>
			<g>
				<g>
					
						<rect x="296.6" y="275.6" transform="matrix(-1.836970e-16 1 -1 -1.836970e-16 590.3815 -9.8741)" class="st2" width="7.1" height="29.4"/>
				</g>
			</g>
		</g>
		<g>
			<g>
				<g>
					<path class="st3" d="M546.3,139.7c1.8,1,2.4,3.3,1.3,5l-5,8.7c-1,1.8-3.3,2.4-5,1.3c-1.8-1-2.4-3.3-1.3-5l5-8.7
						C542.3,139.3,544.5,138.7,546.3,139.7z"/>
				</g>
			</g>
		</g>
		<g>
			<g>
				<g>
					<path class="st3" d="M609.9,203.3c1,1.8,0.4,4-1.3,5l-8.7,5c-1.8,1-4,0.4-5-1.3c-1-1.8-0.4-4,1.3-5l8.7-5
						C606.7,201,608.9,201.6,609.9,203.3z"/>
				</g>
			</g>
		</g>
		<g>
			<g>
				<g>
					<path class="st3" d="M609.9,377.2c-1,1.8-3.3,2.4-5,1.3l-8.7-5c-1.8-1-2.4-3.3-1.3-5c1-1.8,3.3-2.4,5-1.3l8.7,5
						C610.3,373.2,610.9,375.4,609.9,377.2z"/>
				</g>
			</g>
		</g>
		<g>
			<g>
				<g>
					<path class="st3" d="M546.3,440.8c-1.8,1-4,0.4-5-1.3l-5-8.7c-1-1.8-0.4-4,1.3-5c1.8-1,4-0.4,5,1.3l5,8.7
						C548.6,437.6,548,439.8,546.3,440.8z"/>
				</g>
			</g>
		</g>
		<g>
			<g>
				<g>
					<path class="st3" d="M372.4,440.8c-1.8-1-2.4-3.3-1.3-5l5-8.7c1-1.8,3.3-2.4,5-1.3c1.8,1,2.4,3.3,1.3,5l-5,8.7
						C376.4,441.3,374.2,441.9,372.4,440.8z"/>
				</g>
			</g>
		</g>
		<g>
			<g>
				<g>
					<path class="st3" d="M308.7,377.2c-1-1.8-0.4-4,1.3-5l8.7-5c1.8-1,4-0.4,5,1.3c1,1.8,0.4,4-1.3,5l-8.7,5
						C312,379.6,309.8,379,308.7,377.2z"/>
				</g>
			</g>
		</g>
		<g>
			<g>
				<g>
					<path class="st3" d="M308.7,203.3c1-1.8,3.3-2.4,5-1.3l8.7,5c1.8,1,2.4,3.3,1.3,5c-1,1.8-3.3,2.4-5,1.3l-8.7-5
						C308.3,207.3,307.7,205.1,308.7,203.3z"/>
				</g>
			</g>
		</g>
		<g>
			<g>
				<g>
					<path class="st3" d="M372.4,139.7c1.8-1,4-0.4,5,1.3l5,8.7c1,1.8,0.4,4-1.3,5c-1.8,1-4,0.4-5-1.3l-5-8.7
						C370,142.9,370.6,140.7,372.4,139.7z"/>
				</g>
			</g>
		</g>
		<g>
			<g>
				<path class="st4" d="M459.3,297.6c-4.1,0-7.4-3.3-7.4-7.4V168.1c0-4.1,3.3-7.4,7.4-7.4c4.1,0,7.4,3.3,7.4,7.4v122.1
					C466.7,294.3,463.4,297.6,459.3,297.6z"/>
			</g>
		</g>
		<g>
			<g>
				<path class="st4" d="M459.3,297.6c-2.9,0-5.7-1.8-6.9-4.6l-60.7-151.1c-1.5-3.8,0.3-8.1,4.1-9.6c3.8-1.5,8.1,0.3,9.6,4.1
					l60.7,151.1c1.5,3.8-0.3,8.1-4.1,9.6C461.2,297.5,460.2,297.6,459.3,297.6z"/>
			</g>
		</g>
		<g>
			<g>
				<g>
					
						<ellipse transform="matrix(0.9732 -0.2298 0.2298 0.9732 -54.3988 113.2989)" class="st2" cx="459.3" cy="290.3" rx="20" ry="20"/>
				</g>
			</g>
		</g>
	</g>
	<g>
		<g>
			<rect x="372.2" y="441.4" class="st5" width="251.7" height="43.8"/>
		</g>
		<g>
			<rect x="392.7" y="485.1" class="st5" width="210.7" height="126.4"/>
		</g>
		<g>
			<path class="st5" d="M488.8,433.9v7.4h-74c0,0-2.6-19.8,1.5-34c3.3-11.2,10.9-18.8,27.3-10.5c32.1,16.3,42.4,32,44.7,36.1
				c0,0.1,0,0.1,0,0.1C488.6,433.4,488.7,433.7,488.8,433.9C488.8,433.9,488.8,433.9,488.8,433.9z"/>
		</g>
		<g>
			<path class="st5" d="M583.1,441.3h-77.8v-9.7c0,0,0,0,0.1-0.1v-0.1c0.2-0.2,0.5-0.8,1-1.8c6.3-10.6,37-60.4,60.9-53.6
				c7.8,2.2,12.4,8.7,15,16.8C588.7,412.5,583.1,441.3,583.1,441.3z"/>
		</g>
		<g>
			<path class="st6" d="M582.4,392.9c-2.3,9.7-11.6,24.1-31.5,21.6c-15.8-2-37.6,11.7-44.3,16.2c-0.6,0.4-1,0.7-1.2,0.8v-0.1
				c0.2-0.2,0.5-0.8,1-1.8c6.3-10.6,37-60.4,60.9-53.6C575.2,378.3,579.8,384.8,582.4,392.9z"/>
		</g>
		<g>
			<path class="st6" d="M488.8,433.9c-0.1,0-0.3-0.1-0.4-0.2c-4-2.2-31.3-21.9-48.9-19.3c-13,1.8-17.7-3.9-23-7
				c3.3-11.2,10.9-18.8,27.3-10.5c32.1,16.3,42.4,32,44.7,36.1c0,0.1,0,0.1,0,0.1C488.6,433.4,488.7,433.7,488.8,433.9z"/>
		</g>
		<g>
			<path class="st6" d="M507.9,436.8v9.5H488v-9.5c0-0.4,0-0.9,0.1-1.3c0-0.3,0-0.6,0.1-1c0,0,0,0,0-0.1c0.1-0.4,0.2-0.9,0.4-1.4
				c1.3-4.5,5-7.7,9.4-7.7c4.4,0,8.2,3.4,9.4,8.2v0.1c0.1,0.3,0.2,0.4,0.2,0.6c0.1,0.4,0.2,0.8,0.2,1.1
				C507.9,435.8,507.9,436.2,507.9,436.8z"/>
		</g>
		<g>
			<rect x="488.1" y="441.6" class="st1" width="19.7" height="170"/>
		</g>
		<g>
			<rect x="507.9" y="485.1" class="st6" width="95.5" height="7.3"/>
		</g>
		<g>
			<rect x="392.7" y="485.1" class="st6" width="95.5" height="7.3"/>
		</g>
		<g>
			<rect x="488.1" y="485.1" class="st3" width="19.7" height="7.3"/>
		</g>
	</g>
	<g>
		<g>
			<rect x="64.8" y="411" class="st4" width="159.5" height="31.5"/>
		</g>
		<g>
			<rect x="73.7" y="442.5" class="st4" width="141.6" height="169"/>
		</g>
		<g>
			<path class="st4" d="M137.9,405.5v5.3H84.7c0,0-1.9-14.3,1.1-24.5c2.4-8,7.8-13.5,19.6-7.5c23.1,11.7,30.5,23.1,32.2,26
				c0,0.1,0,0.1,0,0.1C137.7,405.2,137.8,405.4,137.9,405.5C137.9,405.5,137.9,405.5,137.9,405.5z"/>
		</g>
		<g>
			<path class="st4" d="M205.8,410.9h-56v-7c0,0,0,0,0.1-0.1v-0.1c0.1-0.1,0.4-0.6,0.8-1.3c4.5-7.6,26.7-43.5,43.9-38.6
				c5.6,1.6,8.9,6.3,10.8,12.1C209.8,390.1,205.8,410.9,205.8,410.9z"/>
		</g>
		<g>
			<path class="st2" d="M205.3,376c-1.7,7-8.3,17.4-22.6,15.6c-11.4-1.4-27.1,8.5-31.9,11.7c-0.4,0.3-0.8,0.5-0.9,0.6v-0.1
				c0.1-0.1,0.4-0.6,0.8-1.3c4.5-7.6,26.7-43.5,43.9-38.6C200.1,365.5,203.4,370.2,205.3,376z"/>
		</g>
		<g>
			<path class="st2" d="M137.9,405.5c-0.1,0-0.2-0.1-0.3-0.1c-2.9-1.6-22.6-15.7-35.2-13.9c-9.3,1.3-12.7-2.8-16.6-5.1
				c2.4-8,7.8-13.5,19.6-7.5c23.1,11.7,30.5,23.1,32.2,26c0,0.1,0,0.1,0,0.1C137.7,405.2,137.8,405.4,137.9,405.5z"/>
		</g>
		<g>
			<path class="st2" d="M151.6,407.6v6.8h-14.3v-6.8c0-0.3,0-0.6,0.1-0.9c0-0.2,0-0.5,0.1-0.7c0,0,0,0,0-0.1c0.1-0.3,0.1-0.6,0.3-1
				c0.9-3.2,3.6-5.6,6.8-5.6c3.2,0,5.9,2.5,6.8,5.9v0.1c0.1,0.2,0.1,0.3,0.1,0.5c0.1,0.3,0.1,0.5,0.1,0.8
				C151.6,406.9,151.6,407.2,151.6,407.6z"/>
		</g>
		<g>
			<rect x="137.4" y="411.2" class="st1" width="14.2" height="200.4"/>
		</g>
		<g>
			<rect x="151.6" y="442.5" class="st2" width="63.7" height="5.3"/>
		</g>
		<g>
			<rect x="73.7" y="442.5" class="st2" width="63.7" height="5.3"/>
		</g>
		<g>
			<rect x="137.4" y="442.5" class="st3" width="14.2" height="5.3"/>
		</g>
	</g>
	<g>
		<g>
			<rect x="179.9" y="522.9" class="st2" width="245.2" height="31.5"/>
		</g>
		<g>
			<rect x="187.8" y="554.4" class="st2" width="229.4" height="57.2"/>
		</g>
		<g>
			<path class="st2" d="M295.9,517.4v5.3h-53.2c0,0-1.9-14.3,1.1-24.5c2.4-8,7.8-13.5,19.6-7.5c23.1,11.7,30.5,23.1,32.2,26
				c0,0.1,0,0.1,0,0.1C295.7,517,295.8,517.2,295.9,517.4C295.9,517.4,295.9,517.4,295.9,517.4z"/>
		</g>
		<g>
			<path class="st2" d="M363.7,522.7h-56v-7c0,0,0,0,0.1-0.1v-0.1c0.1-0.1,0.4-0.6,0.8-1.3c4.5-7.6,26.7-43.5,43.9-38.6
				c5.6,1.6,8.9,6.3,10.8,12.1C367.7,501.9,363.7,522.7,363.7,522.7z"/>
		</g>
		<g>
			<path class="st7" d="M363.2,487.9c-1.7,7-8.3,17.4-22.6,15.6c-11.4-1.4-27.1,8.5-31.9,11.7c-0.4,0.3-0.8,0.5-0.9,0.6v-0.1
				c0.1-0.1,0.4-0.6,0.8-1.3c4.5-7.6,26.7-43.5,43.9-38.6C358,477.3,361.4,482,363.2,487.9z"/>
		</g>
		<g>
			<path class="st7" d="M295.8,517.3c-0.1,0-0.2-0.1-0.3-0.1c-2.9-1.6-22.6-15.7-35.2-13.9c-9.3,1.3-12.7-2.8-16.6-5.1
				c2.4-8,7.8-13.5,19.6-7.5c23.1,11.7,30.5,23.1,32.2,26c0,0.1,0,0.1,0,0.1C295.7,517,295.8,517.2,295.8,517.3z"/>
		</g>
		<g>
			<path class="st7" d="M309.6,519.4v6.8h-14.3v-6.8c0-0.3,0-0.6,0.1-0.9c0-0.2,0-0.5,0.1-0.7c0,0,0,0,0-0.1c0.1-0.3,0.1-0.6,0.3-1
				c0.9-3.2,3.6-5.6,6.8-5.6c3.2,0,5.9,2.5,6.8,5.9v0.1c0.1,0.2,0.1,0.3,0.1,0.5c0.1,0.3,0.1,0.5,0.1,0.8
				C309.6,518.7,309.6,519.1,309.6,519.4z"/>
		</g>
		<g>
			<rect x="295.4" y="523" class="st1" width="14.2" height="88.5"/>
		</g>
		<g>
			<rect x="309.6" y="554.4" class="st7" width="107.6" height="5.3"/>
		</g>
		<g>
			<rect x="187.8" y="554.4" class="st7" width="107.6" height="5.3"/>
		</g>
		<g>
			<rect x="295.4" y="554.4" class="st3" width="14.2" height="5.3"/>
		</g>
	</g>
	<g>
		<path class="st7" d="M664.8,619.1H23.9c-2.1,0-3.9-1.7-3.9-3.9l0,0c0-2.1,1.7-3.9,3.9-3.9h640.9c2.1,0,3.9,1.7,3.9,3.9l0,0
			C668.7,617.3,666.9,619.1,664.8,619.1z"/>
	</g>
	<g>
		<g>
			<g>
				<g>
					<path class="st8" d="M445,383.1c-1.1-0.1-2.1,0.6-2.3,1.7c-0.5,3.2-1.1,6.3-1.8,9.5c-0.6,3.1-1.3,6.2-2.2,9.2
						c-0.8,3-1.8,5.9-3.1,8.5c-1.3,2.7-2.8,5.1-4.6,7.2c-3.7,4.3-8.6,7.6-13.9,10.6c-0.7,0.4-1.3,0.8-2,1.1l-2.1,1.1
						c-1.4,0.7-2.8,1.4-4.2,2.1c-2.8,1.4-5.7,2.8-8.6,4.1c-3.6,1.8-5.1,6.3-3.1,9.9c2,3.6,6.6,4.9,10.1,2.7c2.8-1.8,5.5-3.6,8.3-5.4
						c1.4-0.9,2.7-1.9,4.1-2.8l2-1.5c0.7-0.5,1.4-1,2-1.5c2.7-2.1,5.4-4.3,7.9-6.7c2.5-2.5,4.9-5.2,6.9-8.3c2-3.1,3.5-6.4,4.6-9.8
						c1.1-3.4,1.8-6.7,2.2-10.1c0.5-3.3,0.8-6.6,1-9.9c0.2-3.3,0.4-6.5,0.5-9.8C446.9,384.1,446.1,383.2,445,383.1z"/>
				</g>
			</g>
			<g>
				<path class="st7" d="M423.7,443.4l-14.3,8.3c-4.3,2.5-9.8,1.4-12.3-2.9l0,0c-2.5-4.3-1.1-10.2,3.2-12.7l14.3-8.3L423.7,443.4z"
					/>
			</g>
		</g>
		<g>
			<polygon class="st9" points="394.4,537.8 406,606.1 410,605.4 411.1,537.1 			"/>
		</g>
		<g>
			<g>
				<path class="st2" d="M412.3,537.1l-18.9,0.7c-5.2-12.5-9.7-40.2-4.4-53l21.1,4.8L412.3,537.1z"/>
			</g>
			<g>
				
					<ellipse transform="matrix(0.7301 -0.6834 0.6834 0.7301 -226.6012 404.8444)" class="st2" cx="399.2" cy="489.3" rx="11" ry="11"/>
			</g>
			<g class="st10">
				<polygon class="st2" points="399.2,489.3 399.2,489.3 399.1,489.3 399.2,489.3 				"/>
			</g>
		</g>
		<g>
			<polygon class="st9" points="372.8,534.9 366.5,603.9 370.5,604.3 389.2,538.6 			"/>
		</g>
		<g>
			<path class="st2" d="M393,478.7c-4.5-1.3-9.1,0.3-11.8,3.7l0,0c0,0,0,0,0,0.1c-0.2,0.2-0.4,0.5-0.6,0.8
				c-7.9,11.5-10.5,38.4-8.7,51.5l18.4,4.1l10.1-46.4c0,0,0,0,0,0C402.1,486.6,398.8,480.4,393,478.7z"/>
		</g>
		<g>
			<path class="st4" d="M392.9,526.5l-2.7,12.3l-3.1-0.7l0,0.4l3.4,0.8l2.8-12.7L392.9,526.5z M376.5,490.5
				c-1.8,4.9-3.3,10.9-4.3,17.7c0,0.1,0,0.2-0.1,0.4l0.4,0c0.9-6.4,2.3-12.7,4.3-17.9L376.5,490.5z M371,523.6l0.4-0.1
				c0.1-3,0.2-6.2,0.6-9.5l-0.4,0C371.2,517.3,371,520.5,371,523.6z M371.8,534.7c-0.2-1.8-0.4-3.9-0.5-6.2l-0.4,0
				c0.1,2.2,0.2,4.3,0.5,6.2l0,0.3l11.1,2.5l0.1-0.3L371.8,534.7z M397.8,504.3l-2.4,11h0.4l2.4-11H397.8z"/>
		</g>
		<g>
			<path class="st7" d="M379.4,608.4c-0.3-0.5-0.8-0.8-1.4-1c-0.6-0.2-1.1-0.2-1.7-0.3c-1.4-0.2-2.8-0.8-3.9-1.6
				c-0.6-0.4-1.2-0.9-1.8-1.3l-4.1-0.4c-0.6,0.5-1.1,1.3-1.3,2.1c-0.2,0.7-0.3,1.5-0.4,2.2l-0.1,0.8l14.9,1.7l0.1-0.8l0,0
				C379.7,609.4,379.7,608.9,379.4,608.4z"/>
		</g>
		<g>
			<path class="st7" d="M419.6,607.2c-0.4-0.4-1-0.6-1.6-0.6c-0.6,0-1.2,0.1-1.7,0.2c-1.4,0.1-2.9-0.1-4.2-0.6
				c-0.7-0.3-1.4-0.6-2.1-0.8l-4,0.7c-0.5,0.7-0.7,1.5-0.8,2.3c0,0.8,0,1.5,0.2,2.2l0.1,0.8l14.9-2.2l-0.1-0.8l0,0
				C420.2,608,420,607.5,419.6,607.2z"/>
		</g>
		<g>
			<path class="st7" d="M395.2,431.5L395.2,431.5c12.5,0.1,22,11.4,20,23.8l-5.1,33.4c-9,3.3-21.8,2-32.1-1l0-38.1
				C377.4,439.7,385.3,431.4,395.2,431.5z"/>
		</g>
		<g>
			<path class="st2" d="M377.7,471.3l0,14.4l0.4,0.1l0-14.5H377.7z M395.2,431.1c-0.1,0-0.1,0-0.2,0c-0.5,0-1.1,0-1.6,0.1l0,0.4
				c0.6-0.1,1.2-0.1,1.8-0.1c2.9,0,5.6,0.6,8,1.7l0.2-0.3C400.9,431.8,398.1,431.2,395.2,431.1z M411,438.6
				c-1.1-1.3-2.3-2.5-3.7-3.4l-0.2,0.3c5.2,3.8,8.5,9.9,8.5,16.6c0,1.1-0.1,2.2-0.3,3.3l-1.1,7.3l0.4,0.1l1.1-7.4
				C416.6,449.3,414.9,443.2,411,438.6z M410.2,488.7c-8.1,2.9-19.3,2.2-29.1-0.2l0,0.4c5.6,1.4,11.3,2.1,16.4,2.1
				c4.9,0,9.2-0.7,12.8-2l0.2-0.1l2.9-19.1l-0.4,0L410.2,488.7z M386.6,433.8l-0.1-0.4c-1.5,0.9-2.9,1.9-4.1,3.2
				c-3.3,3.5-5,8.2-4.6,13l0,8.9h0.4l0-8.9C377.7,442.9,381.2,436.9,386.6,433.8z"/>
		</g>
		<g>
			<g>
				<path class="st9" d="M401.1,425.7l-0.5,10.1c-2.9,1.6-5.6,1.4-8.2-0.6l0.5-10.1L401.1,425.7z"/>
			</g>
			<g>
				<path class="st8" d="M400.9,428.8l-0.1,1.2c-1.3,0.6-2.8,1-4.3,0.9c-0.1,0-0.2,0-0.3,0c-1.4-0.1-2.7-0.7-3.6-1.7l0.1-3
					L400.9,428.8z"/>
			</g>
			<g>
				<path class="st9" d="M405.4,414.2l-0.7,7.3l-0.2,1.6c-0.4,4-3.9,7.1-8,7c-0.4,0-0.8-0.1-1.2-0.2c-0.2,0-0.3-0.1-0.5-0.2
					c0,0-0.1,0-0.1,0c-0.6-0.3-1.1-0.6-1.5-1.1c-0.9-1.1-1.4-2.3-1.9-3.5c-0.4-1.1-0.8-2.1-1.1-3.1c-0.3-1.2-0.4-2.5-0.3-3.9l0.2-5
					l13-2.1L405.4,414.2z"/>
			</g>
			<g>
				<path class="st7" d="M405,425.6c0,0,0-4.3-0.2-6.4v0c-0.1-2-0.6-3.9-2-3.7c-2.9,0.5-4-1.9-4-1.9s0,0,0-0.1
					c-0.8,0.1-1.7,0.2-2.6,0.4c-4.4,1.1-5,0-5.5-0.7c-1.1,3.4-0.7,7.6-0.7,8c0,0,0,0,0,0c0,0,0,0,0,0c0,0.2,0.1,0.4,0.1,0.6
					c0.3,1,0.6,2.1,1.1,3.1c0.4,1,0.8,1.9,1.4,2.8l0,0.7c-3-0.6-6.9-3.9-7.7-6.6c-3.2-10,2.2-16,9.9-17.5
					c6.7-1.3,10.3,4.8,11.7,10.5C407.4,418.3,405.8,424.8,405,425.6z"/>
			</g>
			<g>
				<path class="st9" d="M392.7,419.7c-0.1,1.6-1.6,2.9-3.2,2.8c-1.6-0.1-2.9-1.6-2.8-3.2c0.1-1.6,1.6-2.9,3.2-2.8
					C391.6,416.6,392.8,418,392.7,419.7z"/>
			</g>
		</g>
		<g>
			<g>
				<g>
					<path class="st9" d="M437.2,391.8c-1.1-0.2-2.1,0.4-2.4,1.5c-0.8,3.1-1.7,6.2-2.7,9.3c-0.9,3.1-1.9,6.1-3,9
						c-1.1,2.9-2.4,5.7-3.9,8.2c-1.5,2.5-3.3,4.8-5.3,6.7c-4.1,3.9-9.3,6.7-14.9,9.3c-0.7,0.3-1.4,0.6-2.1,0.9l-2.1,0.9
						c-1.5,0.6-2.9,1.2-4.4,1.7c-2.9,1.1-5.9,2.2-8.9,3.3c-3.8,1.4-5.7,5.8-4,9.6c1.6,3.8,6.1,5.5,9.8,3.7c2.9-1.5,5.8-3,8.7-4.6
						c1.5-0.8,2.9-1.6,4.4-2.4l2.2-1.3c0.7-0.4,1.4-0.9,2.2-1.3c2.9-1.8,5.8-3.7,8.5-5.9c2.8-2.2,5.4-4.7,7.7-7.6
						c2.3-2.9,4.1-6.1,5.5-9.3c1.4-3.3,2.4-6.5,3.2-9.8c0.8-3.3,1.4-6.5,1.9-9.7c0.5-3.2,1-6.5,1.4-9.7
						C439,393,438.2,392,437.2,391.8z"/>
				</g>
			</g>
			<g>
				<path class="st7" d="M409.9,449.9l-15,6.9c-4.5,2.1-9.9,0.5-11.9-4.1l0,0c-2.1-4.5-0.1-10.3,4.4-12.3l15-6.9L409.9,449.9z"/>
			</g>
			<g>
				<path class="st2" d="M382.4,445.5c-0.5,1.5-0.7,3.2-0.5,4.8l0.4,0c-0.6-4,1.4-8.1,5.2-9.8l1.3-0.6l-0.2-0.3l-1.3,0.6
					C385,441.1,383.3,443.1,382.4,445.5z M402.4,433.5l6.1,13.4l0.3-0.2l-6.3-13.7L394,437l0.2,0.3L402.4,433.5z M383.5,454.3
					c2.2,3.1,6.3,4.5,10.2,3.4l-0.1-0.4c-3.7,1.1-7.6-0.1-9.8-3.2L383.5,454.3z M409,450.8l-0.1-0.3l-7.2,3.3l0.1,0.3L409,450.8z"/>
			</g>
		</g>
	</g>
	<g>
		<g>
			<path class="st7" d="M564.1,602.5l-18,9.1c-0.3-0.6-0.5-1.3-0.3-1.9c0.1-0.8,0.7-1.4,1.3-1.9c0.6-0.5,1.3-0.8,2-1.2
				c1.7-0.9,3.1-2.3,4.2-3.9c0.6-0.8,1-1.7,1.7-2.5l5-2.3c1,0.4,1.9,1.1,2.6,2C563.2,600.6,563.7,601.5,564.1,602.5z"/>
		</g>
		<g>
			<path class="st7" d="M581.6,608.9l-20,2.6c-0.1-0.7,0-1.4,0.3-1.9c0.4-0.7,1.1-1.1,1.9-1.3c0.7-0.2,1.5-0.3,2.3-0.4
				c1.9-0.3,3.7-1.1,5.2-2.3c0.8-0.6,1.5-1.3,2.4-1.8l5.5-0.6c0.8,0.7,1.5,1.7,1.8,2.7C581.3,606.9,581.5,607.9,581.6,608.9z"/>
		</g>
		<g>
			<g>
				<polygon class="st7" points="573.1,542.4 573.1,542.4 573.1,542.4 				"/>
			</g>
			<g class="st10">
				<polygon class="st7" points="570.5,500.4 570.5,500.4 570.5,500.4 570.5,500.4 				"/>
			</g>
			<g>
				<g>
					<polygon class="st7" points="573.1,542.4 573.1,542.4 573.1,542.4 					"/>
				</g>
				<g>
					<polygon class="st7" points="573.1,542.4 573.1,542.4 573.1,542.4 					"/>
				</g>
				<g>
					<path class="st7" d="M528.1,544.5l26.1,56.1l6.6-2.7l-16.6-52.3l13.4-21.2l15.2,79.6l7.1-0.4l0.2-101.7c0.2-1-43-3.6-43-3.6
						l-9.4,42.3h0C527.5,541.8,527.6,543.2,528.1,544.5z M573.1,542.4C573.1,542.4,573.1,542.4,573.1,542.4
						C573.1,542.4,573.1,542.4,573.1,542.4L573.1,542.4z"/>
				</g>
				<g class="st10">
					<polygon class="st7" points="573.1,542.4 573.1,542.4 573.1,542.4 					"/>
				</g>
			</g>
		</g>
		<g>
			<g>
				<path class="st8" d="M529.1,379.4c0.6,2.9,1.1,5.7,1.6,8.4c0.1,0.7,0.3,1.4,0.4,2c0.2,0.7,0.3,1.4,0.4,2l0.5,2l0.2,1l0.3,1
					c1.4,5.3,3.3,10.5,5.6,15.4c1.2,2.5,2.3,4.9,3.7,7.3l1,1.8c0.2,0.3,0.3,0.6,0.5,0.9l0.5,0.9l2.1,3.5c0.2,0.3,0.3,0.6,0.5,0.9
					l0.6,0.9l1.1,1.7l1.1,1.7l0.6,0.9l0.3,0.4l0.3,0.4l2.4,3.3c0.8,1.1,1.6,2.2,2.5,3.3c1,1.4,1.3,3.1,0.9,4.8
					c-0.4,1.7-1.5,3.4-3.1,4.5c-1.6,1.2-3.5,1.6-5.3,1.3c-1.7-0.3-3.3-1.3-4.3-2.9c-0.8-1.3-1.4-2.6-2.1-3.9l-2-3.9l-0.3-0.5
					l-0.2-0.5l-0.5-1l-0.9-2l-0.9-2l-0.5-1c-0.2-0.3-0.3-0.7-0.4-1l-1.7-4.1l-0.4-1c-0.1-0.3-0.3-0.7-0.4-1l-0.8-2.1
					c-1.1-2.8-1.9-5.6-2.8-8.4c-1.6-5.7-2.8-11.5-3.5-17.3l-0.1-1.1l-0.1-1.1l-0.2-2.2c-0.1-0.7-0.1-1.4-0.1-2.2
					c0-0.7-0.1-1.4-0.1-2.2c-0.1-2.9-0.2-5.7-0.4-8.5c-0.1-0.9,0.7-1.8,1.7-2l0,0C527.9,377.9,528.9,378.5,529.1,379.4z"/>
			</g>
			<g>
				<path class="st2" d="M528.9,430.2l10.3,15.5c3.1,4.7,9.2,6.3,13.9,3.2l0,0c4.7-3.1,6.2-9.8,3.1-14.5l-10.3-15.5L528.9,430.2z"/>
			</g>
		</g>
		<g>
			<path class="st2" d="M563.3,428.4L563.3,428.4c-10.9-1.8-21,6.2-21.8,17.2l-4.3,52.7c16.9,9.7,27.5,7.5,43.3,3.6l2.2-49.5
				C583.2,440.5,574.9,430.2,563.3,428.4z"/>
		</g>
		<g>
			<path class="st4" d="M579.2,438.9c1.3,2.1,2.3,4.3,2.9,6.7l0.6-0.2c-0.6-2.4-1.6-4.7-2.9-6.8L579.2,438.9z M576.5,502.7l0.1,0.6
				c1.3-0.3,2.6-0.6,3.9-1l0.4-0.1l0.6-12.9l-0.6-0.1l-0.6,12.6C579.1,502.1,577.8,502.4,576.5,502.7z M536.5,498.5l0.3,0.2
				c3.2,1.9,6.3,3.3,9.2,4.4l0.1-0.6c-2.8-1.1-5.8-2.5-9-4.3l2.5-30.9l-0.6,0L536.5,498.5z M565,504.9c-1.5,0.2-3,0.2-4.6,0.3v0.6
				c1.6,0,3.2-0.1,4.8-0.3L565,504.9z M581.7,472.7h0.6l0.5-11.9l-0.6,0.1L581.7,472.7z M540.1,454.9l0.6,0.1l0.8-9.4
				c0.8-10,9.1-17.4,18.8-17.4c0.5,0,1,0,1.5,0.1v-0.6c-0.4,0-0.8-0.1-1.3-0.1c-10.2-0.1-18.8,7.8-19.5,18L540.1,454.9z"/>
		</g>
		<g>
			<g>
				<g>
					<path class="st9" d="M558.2,420.3l-0.9,13.5c2.8,2.1,5.7,2.3,8.8,0.6l0.9-13.5L558.2,420.3z"/>
				</g>
				<g>
					<path class="st8" d="M558.2,420.3l-0.4,6.1c0.6,0.3,1.2,0.5,1.9,0.6c0.2,0,0.4,0.1,0.7,0.1c2.4,0.2,4.8-0.8,6.3-2.5l0.2-3.6
						L558.2,420.3z"/>
				</g>
				<g>
					<path class="st9" d="M554.8,411.8l-0.2,5.6l-0.1,2.3c-0.1,3.2,2.2,5.9,5.3,6.4c1,0.2,2.1,0.1,3-0.2c0.2-0.1,0.4-0.1,0.7-0.2
						c0.1-0.1,0.3-0.1,0.4-0.2c1.2-0.6,2.3-1.6,3-2.8c0.6-1.1,1.2-2.2,1.7-3.5c0.3-0.7,0.6-1.4,0.9-2.2c1.4-3.3,0.9-7.1-1.4-9.8
						c-1.9-2.3-4.5-3.2-7.8-2.4C557.2,405.5,554.9,408.4,554.8,411.8z"/>
				</g>
				<g>
					<path class="st7" d="M565.5,416.1l-0.9-0.7c0,0,2.4-3.7,2-5.1c-0.6-2-5.4-3.2-7.9-2.9c-0.8,0.1-1.4,0.3-1.8,1
						c-0.9,1.5-2.1,4.5-2.2,7.7c0,0-1.8-9.9,2-14.4c2.5-2.9,4.7-4.9,8.7-2.3c6.3,4.2,9.1,10.4,6.5,18.3l-4.2-2.5L565.5,416.1z"/>
				</g>
			</g>
			<g>
				<path class="st9" d="M565.3,416.6c-0.1,1.6,1.3,3,3.1,3.1c1.8,0.1,3.4-1.1,3.5-2.7c0.1-1.6-1.3-3-3.1-3.1
					C567,413.8,565.4,415,565.3,416.6z"/>
			</g>
		</g>
		<g>
			<g>
				<path class="st9" d="M544.5,405.8c0.8,0.7,0.9,1.9,0.2,2.7c-1.9,2.4-3.7,4.8-5.3,7.3c-0.8,1.3-1.6,2.5-2.2,3.8
					c-0.7,1.3-1.3,2.6-1.8,3.9c-0.5,1.3-0.8,2.6-1,3.8c0,0.3-0.1,0.6-0.1,0.9l0,0.4l0,0.2l0,0.2c0,0.6,0.1,1.1,0.2,1.6
					c0.1,0.5,0.3,0.9,0.5,1.3c0.2,0.4,0.5,0.8,0.8,1.2c0.3,0.4,0.7,0.7,1.1,1.1c0.4,0.3,0.8,0.7,1.3,1c1,0.6,2.1,1.2,3.3,1.7
					c1.2,0.5,2.5,0.9,3.8,1.3c2.7,0.7,5.5,1.2,8.4,1.7c2.9,0.4,5.8,0.7,8.8,0.9c3,0.2,6,0.4,9,0.5c1.9,0.1,3.6,1,4.8,2.4
					c1.2,1.4,1.8,3.3,1.7,5.3c-0.2,2-1.1,3.7-2.6,4.9c-1.4,1.2-3.3,1.8-5.3,1.5c-3.1-0.5-6.3-1.1-9.4-1.8c-3.1-0.7-6.3-1.4-9.4-2.3
					c-3.1-0.9-6.3-1.9-9.5-3.3c-1.6-0.7-3.1-1.4-4.7-2.3c-1.6-0.9-3.1-1.9-4.6-3.2c-0.7-0.6-1.4-1.3-2.1-2.1
					c-0.7-0.8-1.3-1.6-1.8-2.6c-0.5-0.9-1-1.9-1.3-3c-0.3-1-0.5-2.1-0.6-3.2c-0.1-1,0-2.1,0.1-3.1l0-0.4l0.1-0.4l0.1-0.7
					c0.1-0.5,0.2-0.9,0.4-1.4c0.5-1.8,1.3-3.4,2.1-4.9c0.8-1.5,1.7-2.9,2.7-4.3c1-1.3,2-2.6,3-3.8c2.1-2.4,4.3-4.7,6.6-6.9
					C542.5,405.1,543.7,405.1,544.5,405.8z"/>
			</g>
			<g>
				<path class="st2" d="M548.3,455.7l18.5,2c5.6,0.6,10.8-3,11.4-8.6l0,0c0.6-5.6-3.6-11.1-9.2-11.7l-18.5-2L548.3,455.7z"/>
			</g>
			<g>
				<path class="st4" d="M567.3,436.7c0,0.2,0,0.4,0,0.5l1.8,0.2c0.6,0.1,1.3,0.2,1.9,0.4l0.2-0.5c-0.6-0.2-1.3-0.4-2-0.4
					L567.3,436.7z M548.3,451.1l-0.6,5.1l5.6,0.6l0.2-0.5l-5.2-0.6l0.5-4.6L548.3,451.1z M563.7,457.4l-6.8-0.7l0,0.5l7,0.8
					L563.7,457.4z M576,440.6l-0.2,0.6c1.8,2.2,2.7,5,2.4,7.9c-0.3,2.4-1.4,4.5-3,6l0.5,0.3c1.7-1.6,2.8-3.8,3.1-6.2
					c0.2-1.6,0-3.1-0.5-4.6C577.7,443,577,441.7,576,440.6z M555.1,435.3l-0.2,0.5l4.7,0.5l0.1-0.5L555.1,435.3z M549.3,441.2
					l-0.5,4.7l0.5,0l0.5-4.5L549.3,441.2z"/>
			</g>
		</g>
	</g>
	<g>
		<g>
			<path class="st7" d="M158.8,611.2l20.2,0.1c0-0.7-0.1-1.4-0.6-1.9c-0.5-0.6-1.2-1-2-1.1c-0.8-0.1-1.6-0.1-2.3-0.2
				c-1.9-0.1-3.8-0.7-5.5-1.6c-0.9-0.5-1.7-1.1-2.6-1.5l-5.5,0.1c-0.8,0.8-1.3,1.9-1.5,3C158.8,609.2,158.8,610.2,158.8,611.2z"/>
		</g>
		<g>
			<path class="st7" d="M102.8,606.3l19.5,5.2c0.2-0.7,0.2-1.3-0.1-2c-0.3-0.7-1-1.2-1.7-1.6c-0.7-0.3-1.5-0.5-2.2-0.7
				c-1.8-0.6-3.5-1.6-4.9-2.9c-0.7-0.7-1.4-1.5-2.2-2.1L106,601c-0.9,0.6-1.7,1.5-2.2,2.5C103.3,604.4,103,605.3,102.8,606.3z"/>
		</g>
		<g>
			<path class="st7" d="M167.1,600.3l-2.1-57c0,0,0-0.1,0-0.1l-5.4-41.5c0,0,0,0,0,0c-0.4-5.4-41.4-11.6-42.9-6.4c0,0,0,0,0,0l0,0
				l0,0c-0.3,1-0.4,2.1-0.4,3.1l-10.9,97.1l8.1,1.2l23.4-74.1l13.3,23.2l8.9,54.6L167.1,600.3z"/>
		</g>
		<g>
			<g>
				<g>
					<path class="st8" d="M178,374.4c-1.1,0.1-1.9,0.9-1.9,1.9c-0.1,5.8-0.1,11.5-1,16.9c-0.4,2.7-1,5.4-1.8,8
						c-0.8,2.6-1.7,5.1-2.8,7.6c-1.1,2.5-2.4,4.9-3.7,7.3c-0.7,1.2-1.4,2.4-2.1,3.5l-1.1,1.7c-0.4,0.6-0.8,1.2-1.2,1.7
						c-1.5,2.3-3.2,4.5-4.9,6.7c-1.7,2.2-3.5,4.4-5.3,6.5c-0.6,0.7-0.9,1.5-1.1,2.3c-0.2,0.8-0.2,1.7,0,2.6c0.3,1.7,1.3,3.4,2.9,4.7
						c1.6,1.2,3.5,1.7,5.3,1.5c0.9-0.1,1.7-0.4,2.5-0.9c0.8-0.5,1.4-1.1,1.9-1.9c1.6-2.5,3.1-5.1,4.6-7.7c1.4-2.6,2.9-5.3,4.2-8
						c0.3-0.7,0.7-1.4,1-2l0.9-2.1c0.6-1.4,1.2-2.8,1.8-4.2c1.1-2.8,2.1-5.7,3-8.7c0.8-3,1.5-6,1.9-9c0.4-3,0.7-6.1,0.7-9.1
						c0-3-0.2-6-0.5-9c-0.3-2.9-0.7-5.8-1.1-8.7C180,375,179.1,374.3,178,374.4z"/>
				</g>
			</g>
			<g>
				<path class="st1" d="M178.9,428.2L168,443.4c-3.3,4.6-9.5,6-14.1,2.7l0,0c-4.6-3.3-5.9-10.1-2.6-14.7l10.9-15.2L178.9,428.2z"/>
			</g>
		</g>
		<g>
			<path class="st1" d="M144.9,427.7L144.9,427.7c11.1,0,19.8,9.5,18.8,20.5l-4.2,52.8c-18.3,6.9-28.4,3-43.4-3.4l5.8-49.4
				C123.2,436.5,133.1,427.7,144.9,427.7z"/>
		</g>
		<g>
			<path class="st4" d="M161,483l-1.4,18c-3.4,1.3-6.5,2.2-9.4,2.8l0,0.6c3-0.6,6.2-1.6,9.6-2.9l0.3-0.1l1.5-18.4L161,483z
				 M160.4,434.9l-0.5,0.4c2.4,3.2,3.8,7.1,3.8,11.4c0,0.5,0,1.1-0.1,1.6l-0.8,9.9c0.2,0,0.4,0,0.6,0l0.8-9.9
				C164.7,443.3,163.3,438.6,160.4,434.9z M122,500.1l-0.2,0.5c4.4,1.8,8.3,3.1,12.3,3.9l0.1-0.6C130.2,503.2,126.2,501.8,122,500.1
				z M147.9,427.3c-1-0.1-2-0.2-3-0.2c-7,0-13.3,3-17.7,7.9l0.5,0.3c4.3-4.7,10.4-7.6,17.1-7.6c3.8,0,7.4,1.1,10.4,3.1l0.4-0.4
				C153.4,428.8,150.8,427.8,147.9,427.3z"/>
		</g>
		<g>
			<g>
				<g>
					<path class="st9" d="M150.9,422.3l-1.6,13.4c-3.1,1.5-6,1.2-8.7-1l1.6-13.4L150.9,422.3z"/>
				</g>
				<g>
					<path class="st8" d="M150.9,422.3l-0.7,6c-0.6,0.2-1.3,0.2-2,0.2c-0.2,0-0.4,0-0.7-0.1c-2.4-0.3-4.5-1.7-5.7-3.7l0.4-3.6
						L150.9,422.3z"/>
				</g>
				<g>
					<path class="st9" d="M155.8,414.6l-1.2,7.8c-0.5,3.1-3.2,5.4-6.4,5.3h0c-2.9-0.1-5.4-1.9-6.3-4.7c-0.6-1.8-1.1-3.9-1.6-6
						c-0.7-3.5,0.4-7.1,3.2-9.3c2.3-1.9,5-2.3,8.1-1C154.5,408,156.3,411.3,155.8,414.6z"/>
				</g>
			</g>
			<g>
				<path class="st7" d="M155.5,416.5c0,0,2.9-7.5-2.6-11.6c-1.9-1.4-4.6-2.3-7.2-2.1c-0.2-1.2-0.9-2.3-1.9-2.9c-2-1.2-4.7-0.3-6,2
					c-1.2,2.1-0.8,4.6,0.9,5.9c-0.9,1.9-1.3,4.3-1.2,7.5l3.3,0.1l1.3,2.4l1.5-0.7l0.6-0.1l-0.3-3.7l1.1-3.2c0,0,4.5-2.2,9.9,0.4
					l1,2.3l-0.1,1.7L155.5,416.5z"/>
			</g>
			<g>
				
					<ellipse transform="matrix(0.1189 -0.9929 0.9929 0.1189 -289.6199 506.1755)" class="st9" cx="140.4" cy="416.3" rx="2.9" ry="3.3"/>
			</g>
		</g>
		<g>
			<polygon class="st9" points="159.6,600.4 160.5,605.3 166,605.1 166.4,600.3 			"/>
		</g>
		<g>
			<polygon class="st9" points="106.1,595.6 106,601 111.3,602.3 113,596.6 			"/>
		</g>
		<g>
			<g>
				<g>
					<path class="st9" d="M195.2,407.9c-0.9-0.5-2.1-0.2-2.7,0.7c-1.7,2.7-3.4,5.3-5.2,7.9c-1.8,2.6-3.6,5.1-5.5,7.5
						c-1.9,2.4-3.9,4.6-6.1,6.5c-2.2,1.9-4.4,3.5-6.9,4.7c-4.9,2.4-10.6,3.5-16.6,4.3c-0.8,0.1-1.5,0.2-2.3,0.2l-2.3,0.2
						c-1.5,0.1-3.1,0.2-4.6,0.3c-3.1,0.2-6.2,0.3-9.3,0.5c-4,0.2-7,3.8-6.6,7.8c0.4,4,4.1,6.9,8.1,6.3c3.2-0.6,6.3-1.1,9.5-1.8
						c1.6-0.3,3.2-0.7,4.8-1l2.4-0.6c0.8-0.2,1.6-0.4,2.4-0.6c3.2-0.8,6.5-1.8,9.7-3c3.2-1.3,6.4-2.8,9.4-4.8c3-2,5.6-4.5,7.9-7.1
						c2.3-2.6,4.2-5.4,5.9-8.2c1.7-2.8,3.2-5.7,4.7-8.5c1.4-2.9,2.8-5.7,4.2-8.6C196.5,409.5,196.2,408.4,195.2,407.9z"/>
				</g>
			</g>
			<g>
				<path class="st1" d="M157,454.8l-18.6,2.3c-5.6,0.7-10.8-2.9-11.6-8.5l0,0c-0.7-5.6,3.4-11.1,9-11.9l18.6-2.3L157,454.8z"/>
			</g>
			<g>
				<path class="st4" d="M151.2,434.9l3.2-0.4l2.2,17.7l0.5-0.1l-2.3-18.2l-3.7,0.5L151.2,434.9z M138.8,457.7l16.4-2.1l0.1-0.6
					l-16.7,2.1L138.8,457.7z M131.2,438.8c1.4-1,3-1.7,4.7-1.9l7.4-0.9l-0.1-0.5l-7.3,0.9c-1.8,0.2-3.5,0.9-5,2.1L131.2,438.8z
					 M126.4,448.7c0.2,1.7,0.9,3.4,1.9,4.8l0.4-0.4c-0.9-1.3-1.5-2.8-1.8-4.5c-0.3-2.6,0.4-5.2,1.8-7.3c-0.1-0.1-0.3-0.2-0.4-0.3
					C126.7,443.3,126,446.1,126.4,448.7z"/>
			</g>
		</g>
	</g>
	<g>
		<g class="st10">
			<polygon class="st4" points="269,492.7 269,492.7 269,492.7 269,492.7 			"/>
		</g>
		<g>
			<path class="st7" d="M250.6,609c0.4-0.5,1-0.7,1.6-0.8c0.6-0.1,1.2-0.1,1.8-0.1c1.5-0.1,2.9-0.5,4.2-1.2c0.7-0.4,1.3-0.8,2-1.1
				l4.2,0.1c0.6,0.6,1,1.4,1.1,2.3c0.2,0.8,0.2,1.5,0.1,2.3l0,0.9l-15.5,0.1l0-0.9l0,0C250.2,609.9,250.3,609.4,250.6,609z"/>
		</g>
		<g>
			<path class="st9" d="M248.1,538.1l2.5-12.2l19.9,5l-5.3,11.1l-1,63.8l-4.2,0l-12-64.1l0,0l0-0.1c-0.1-0.3-0.1-0.5-0.1-0.8l0,0
				C247.8,539.9,247.9,539,248.1,538.1z"/>
		</g>
		<g>
			<path class="st7" d="M250.6,525.9c0,0,7.9-37.6,7.9-37.6c0.9-6.2,32.5-0.3,32.5-0.3c5.2,6.4,6.3,16,6.5,27.2
				c0.1,4.3-0.1,8.6-0.6,12.6l-23.1,3.5l-0.2-2.9c-0.5,1-0.9,1.9-1.4,2.9L250.6,525.9z"/>
		</g>
		<g class="st10">
			<polygon class="st4" points="280.4,492.7 280.4,492.7 280.4,492.7 280.4,492.7 			"/>
		</g>
		<g>
			<path class="st7" d="M277.3,609.2c0.4-0.5,1-0.7,1.6-0.8c0.6-0.1,1.2-0.1,1.8-0.1c1.5-0.1,2.9-0.5,4.2-1.2c0.7-0.4,1.3-0.8,2-1.1
				l4.2,0.1c0.6,0.6,1,1.4,1.1,2.3c0.2,0.8,0.2,1.5,0.1,2.3l0,0.9l-15.5,0l0-0.9h0C276.9,610.1,277,609.6,277.3,609.2z"/>
		</g>
		<g>
			<polygon class="st9" points="274.9,531.2 295.1,528.1 291.1,606 286.8,605.9 			"/>
		</g>
		<g>
			<path class="st7" d="M274.9,431c0,0,9.3,3,10.3-12.2c0,0-3.3-3.3-3.6-3.5c-0.2-0.2-5.5,9.4-5.5,9.4L274.9,431z"/>
		</g>
		<g>
			<g>
				<g>
					<path class="st8" d="M217.8,389.2c1.1-0.4,2.2,0,2.6,0.9l0.9,2l1,2c0.6,1.3,1.3,2.7,2,4c1.4,2.6,2.8,5.2,4.3,7.7
						c1.5,2.5,3.1,4.9,4.9,7c1.7,2.2,3.6,4.2,5.6,6c2,1.8,4.2,3.3,6.6,4.7c2.4,1.4,4.9,2.7,7.5,3.9c2.6,1.2,5.4,2.5,8.1,3.7
						c2.8,1.3,5.5,2.6,8.3,3.9c1.7,0.9,2.9,2.5,3.3,4.4c0.4,1.8,0.1,3.9-1,5.7v0c-1.1,1.8-2.8,3-4.6,3.5c-1.8,0.5-3.6,0.3-5.2-0.7
						c-2.4-1.7-4.9-3.3-7.4-4.9c-2.5-1.6-5-3.3-7.6-5c-2.6-1.7-5.2-3.6-7.7-5.6c-2.6-2.1-5-4.4-7.1-6.9c-2.2-2.5-4-5.3-5.6-8
						c-1.6-2.8-3-5.6-4.2-8.5c-1.2-2.9-2.3-5.8-3.3-8.6c-0.5-1.5-1-2.9-1.4-4.4l-0.7-2.2l-0.6-2.2
						C216.1,390.6,216.7,389.6,217.8,389.2z"/>
				</g>
			</g>
			<g>
				<path class="st2" d="M244.5,439.7l14.6,8.7c4.4,2.6,10.1,1.6,12.7-2.8l0,0c2.6-4.4,1.3-10.5-3.1-13.1l-14.6-8.7L244.5,439.7z"/>
			</g>
		</g>
		<g>
			<path class="st2" d="M278.1,429.1L278.1,429.1c-12.9-0.8-23.5,10-22.4,22.9l2.8,36.3c9,4,21.6,2,32.5-0.3l3.3-39
				C295.8,438.9,288.3,429.7,278.1,429.1z"/>
		</g>
		<g>
			<path class="st4" d="M259.2,437.7l0.3,0.2c2.4-3.4,5.9-6.1,9.9-7.6l-0.2-0.3c-3.1,1.2-6,3.1-8.3,5.6
				C260.3,436.3,259.7,437,259.2,437.7z M257.2,476.7l0.9,11.9l0.2,0.1c1.4,0.6,3,1.1,4.6,1.5v-0.4c-1.6-0.4-3.1-0.8-4.5-1.5
				l-0.9-11.6L257.2,476.7z M291,488c-4.5,0.9-9.2,1.8-13.9,2.3v0.4c4.8-0.5,9.7-1.4,13.9-2.3l0.3-0.1l0.8-9.3l-0.4-0.1L291,488z
				 M294.3,449l-1,11.9l0.4,0.1l1-12c0.2-1.1,0.2-2.3,0.2-3.4l-0.4,0.1C294.5,446.8,294.5,447.9,294.3,449z M255.3,452l0.7,8.8h0.4
				l-0.7-8.8c-0.4-4.1,0.5-7.9,2.2-11.3l-0.3-0.2C255.8,444,255,448,255.3,452z M285.6,431.3c3.4,1.9,6,4.9,7.5,8.4l0.4,0
				c-0.7-1.6-1.5-3.1-2.6-4.4c-1.4-1.8-3.2-3.2-5.1-4.3L285.6,431.3z"/>
		</g>
		<g>
			<g>
				<path class="st9" d="M271.1,425.6l0.4,9.8c2.9,1.6,5.7,1.4,8.4-0.6l-0.4-9.8L271.1,425.6z"/>
			</g>
			<g>
				<path class="st8" d="M271.2,426.8l0.2,3.2c1.3,0.7,2.8,1,4.4,1c0.1,0,0.2,0,0.3,0c1.5-0.1,2.8-0.8,3.8-1.8l-0.2-3L271.2,426.8z"
					/>
			</g>
			<g>
				<path class="st9" d="M266.1,418l0.9,3.1l0.6,1.7c0.4,4.2,4,7.3,8.2,7.2c0.4,0,0.8-0.1,1.3-0.2c0.2,0,0.3-0.1,0.5-0.2
					c0,0,0.1,0,0.1,0c0.6-0.3,1.1-0.7,1.5-1.2c0.9-1.1,1.5-2.3,2-3.6c0.5-1.1,0.9-2.1,1.1-3.2c0.3-1.3,0.5-2.6,0.3-4l-0.5-7.9
					l-12.5,2.8L266.1,418z"/>
			</g>
			<g>
				<path class="st7" d="M267.2,415.5c0,0,0.1-2.7,1.6-5.4c1.3-2.3,5.9-5.2,10-2.8c0.1-1.4,0.8-2.7,2-3.5c2.2-1.5,5.4-0.9,7,1.5
					c1.6,2.4,1.1,5.5-1.1,7c-0.7,0.5-1.4,0.7-2.2,0.8c0.1,0.1,0.1,0.3,0.1,0.4c0.7,2.1,1.1,6.6-1.5,8.2c-0.9,0.5-3-0.1-3.1-3
					c0-0.2,0.4-4.9-0.2-6.2c-0.3,0.5-1.4,1.5-4.5,1c-1.5-0.3-2.8-0.2-3.9,0.2c-1.7,1.4-2.8,2.9-4.1,4.1c-1.2,1.2-0.4,2.4,0.4,3.6
					c1.2,1.7,0,4.1-1.3,4.7c0,0,2.3-2.3-0.1-4.5C264.4,419.7,265.7,415.9,267.2,415.5z"/>
			</g>
			<g>
				
					<ellipse transform="matrix(2.373294e-02 -0.9997 0.9997 2.373294e-02 -142.9332 692.0759)" class="st9" cx="282.9" cy="419.2" rx="3.1" ry="3.1"/>
			</g>
		</g>
		<g>
			<g>
				<g>
					<path class="st9" d="M214.4,437.1c0.6-1,1.7-1.4,2.6-0.9l2,1l2,1c1.3,0.6,2.7,1.2,4,1.9c2.7,1.2,5.4,2.3,8.2,3.3
						c2.7,1,5.5,1.8,8.2,2.4c2.7,0.6,5.5,1,8.1,1.1c2.7,0.1,5.4-0.1,8.1-0.5c2.7-0.4,5.5-1,8.3-1.7c2.8-0.7,5.7-1.4,8.7-2.2
						c2.9-0.7,5.9-1.5,8.9-2.1c1.9-0.4,3.8,0.2,5.3,1.3c1.5,1.2,2.5,3,2.8,5.1c0.3,2.1-0.3,4.1-1.3,5.6c-1.1,1.5-2.6,2.5-4.5,2.7
						c-2.9,0.2-5.9,0.5-8.8,0.8c-3,0.3-6,0.6-9.1,0.9c-3.1,0.3-6.3,0.5-9.6,0.5c-3.3,0-6.6-0.3-9.9-0.9c-3.3-0.6-6.4-1.6-9.4-2.7
						c-3-1.2-5.8-2.5-8.6-4c-2.8-1.5-5.4-3.1-8-4.7c-1.3-0.8-2.6-1.6-3.8-2.5l-1.9-1.3l-1.9-1.3C214.1,439.2,213.9,438,214.4,437.1z
						"/>
				</g>
			</g>
			<g>
				<path class="st2" d="M267,459.6l16.8-2.4c5.1-0.7,8.8-5.1,8.1-10.2l0,0c-0.7-5.1-5.6-9-10.7-8.3l-16.8,2.4L267,459.6z"/>
			</g>
			<g>
				<path class="st4" d="M264,440.8l0.5,3.3l0.4,0l-0.4-3l3.9-0.5l0-0.4L264,440.8z M272.8,440l7-1l0-0.4l-7,1L272.8,440z
					 M285,438.7l-0.2,0.3c3.6,1,6.6,4.2,7.1,8c0.3,2.3-0.3,4.4-1.4,6.1l0.3,0.2c1.3-1.9,1.8-4.1,1.5-6.4c-0.1-0.6-0.2-1.2-0.4-1.7
					C290.8,442,288.1,439.6,285,438.7z M265.2,447.3l-0.4,0l0.9,6.5l0.4-0.1L265.2,447.3z M282.5,457.4l-13.2,1.8l0.1,0.4l13.2-1.8
					L282.5,457.4z"/>
			</g>
		</g>
	</g>
	<g>
		<g>
			<g>
				<path class="st5" d="M20,272.3v-38.1c0-5.4,2.1-9.7,6.3-12.7c4.2-3.1,10.6-4.6,19-4.6h50.8c2.6,0,4.3-0.3,5.2-0.8
					c0.9-0.6,1.4-1.5,1.4-2.9v-5c0-1.1-0.5-1.8-1.4-2.3c-0.9-0.5-2.6-0.7-5.1-0.7H30.1v-16.4h65.6c16,0,24,5.4,24,16.1v10.5
					c0,12-8.1,18-24.2,18H45.3c-6,0-8.9,2.2-8.9,6.7v15.9h83.2v16.4H20z"/>
			</g>
			<g>
				<path class="st5" d="M160.8,272.3c-5.1,0-9.4-0.5-12.9-1.5c-3.5-1-6.3-2.4-8.5-4.4c-2.1-1.9-3.7-4.3-4.7-7.1
					c-1-2.8-1.5-6.1-1.5-9.8v-38.1c0-3.7,0.5-7,1.5-9.8c1-2.8,2.5-5.2,4.7-7.1c2.1-1.9,5-3.4,8.5-4.4c3.5-1,7.8-1.5,12.9-1.5h47.8
					c5,0,9.3,0.5,12.9,1.5c3.5,1,6.4,2.4,8.5,4.4c2.1,1.9,3.7,4.3,4.7,7.1c1,2.8,1.5,6.1,1.5,9.8v38.1c0,3.7-0.5,7-1.5,9.8
					c-1,2.8-2.5,5.2-4.7,7.1c-2.1,1.9-5,3.4-8.5,4.4c-3.5,1-7.8,1.5-12.9,1.5H160.8z M150,248.9c0,2.3,0.8,4.1,2.5,5.3
					c1.7,1.2,4.4,1.8,8.1,1.8h48.1c3.7,0,6.4-0.6,8.1-1.8c1.7-1.2,2.5-2.9,2.5-5.3v-36.7c0-2.3-0.8-4.1-2.5-5.3
					c-1.7-1.2-4.4-1.8-8.1-1.8h-48.1c-3.7,0-6.4,0.6-8.1,1.8c-1.7,1.2-2.5,2.9-2.5,5.3V248.9z"/>
			</g>
			<g>
				<path class="st5" d="M250.7,272.3v-38.1c0-5.4,2.1-9.7,6.3-12.7c4.2-3.1,10.6-4.6,19-4.6h50.8c2.6,0,4.3-0.3,5.2-0.8
					c0.9-0.6,1.4-1.5,1.4-2.9v-5c0-1.1-0.5-1.8-1.4-2.3c-0.9-0.5-2.6-0.7-5.1-0.7h-66.1v-16.4h65.6c16,0,24,5.4,24,16.1v10.5
					c0,12-8.1,18-24.2,18H276c-6,0-8.9,2.2-8.9,6.7v15.9h83.2v16.4H250.7z"/>
			</g>
			<g>
				<path class="st5" d="M384.8,272.3v-58.2c0-3-1.1-5.3-3.3-6.7c-2.2-1.5-5-2.2-8.4-2.2h-11.8v-16.4h11.6c4.2,0,8.1,0.5,11.5,1.4
					c3.5,0.9,6.4,2.3,8.9,4.2c2.4,1.8,4.4,4.2,5.7,7.1c1.4,2.9,2,6.2,2,10.1v60.8H384.8z"/>
			</g>
		</g>
		<g>
			<path class="st7" d="M34.7,158.4v16.9h-3.9v-7h-5.3v7h-3.9v-16.9h3.9v6.6h5.3v-6.6H34.7z"/>
			<path class="st7" d="M46.4,158.4l5.3,16.9h-4.2l-1-3.5h-5.5l-1.1,3.5h-3.5l5.4-16.9H46.4z M41.9,168.7h3.6l-1.8-5.9L41.9,168.7z"
				/>
			<path class="st7" d="M57.5,169v6.3h-4v-16.9h6.6c1.5,0,2.6,0.2,3.4,0.5c0.8,0.3,1.5,0.9,2.1,1.7c0.6,0.8,0.9,1.8,0.9,3
				c0,0.8-0.2,1.6-0.5,2.4c-0.3,0.8-0.8,1.4-1.4,1.9s-1.2,0.8-1.7,0.9c-0.6,0.1-1.4,0.2-2.7,0.2H57.5z M57.4,165.9h2.6
				c1,0,1.7-0.2,2.1-0.7c0.4-0.5,0.6-1,0.6-1.6c0-0.7-0.2-1.2-0.7-1.6c-0.4-0.4-1.1-0.6-2-0.6h-2.6V165.9z"/>
			<path class="st7" d="M72.8,169v6.3h-4v-16.9h6.6c1.5,0,2.6,0.2,3.4,0.5c0.8,0.3,1.5,0.9,2.1,1.7c0.6,0.8,0.9,1.8,0.9,3
				c0,0.8-0.2,1.6-0.5,2.4c-0.3,0.8-0.8,1.4-1.4,1.9s-1.2,0.8-1.7,0.9c-0.6,0.1-1.4,0.2-2.7,0.2H72.8z M72.6,165.9h2.6
				c1,0,1.7-0.2,2.1-0.7c0.4-0.5,0.6-1,0.6-1.6c0-0.7-0.2-1.2-0.7-1.6c-0.4-0.4-1.1-0.6-2-0.6h-2.6V165.9z"/>
			<path class="st7" d="M96.2,158.4l-5.3,9.8v7.1H87v-7.1l-5.3-9.8h4.6l3.2,6.4l3.2-6.4H96.2z"/>
			<path class="st7" d="M116.5,158.4v16.9h-3.4l-6.6-11.4c0,0.3,0,0.5,0,0.6c0,0.3,0,0.5,0,0.7v10.1h-3.1v-16.9h4.3l5.7,9.9
				c0-0.5-0.1-0.9-0.1-1.1v-8.8H116.5z"/>
			<path class="st7" d="M132,161.6h-8v3.5h6.3v3.2h-6.3v3.7h8v3.3h-12v-16.9h12V161.6z"/>
			<path class="st7" d="M154.6,158.4l-4.2,16.9h-3.9l-2.8-11.2l-2.7,11.2h-3.9l-4.3-16.9h4l2.3,10.3c0,0,0.1,0.2,0.1,0.5
				c0,0.1,0.1,0.3,0.1,0.5l2.8-11.4h3.6l2.8,11.4c0.1-0.2,0.1-0.6,0.2-1.1l2.4-10.3H154.6z"/>
			<path class="st7" d="M174.9,158.4l-5.3,9.8v7.1h-3.9v-7.1l-5.3-9.8h4.6l3.2,6.4l3.2-6.4H174.9z"/>
			<path class="st7" d="M188,161.6h-8v3.5h6.3v3.2H180v3.7h8v3.3h-12v-16.9h12V161.6z"/>
			<path class="st7" d="M198.7,158.4l5.3,16.9h-4.2l-1-3.5h-5.5l-1.1,3.5h-3.5l5.4-16.9H198.7z M194.1,168.7h3.6l-1.8-5.9
				L194.1,168.7z"/>
			<path class="st7" d="M209.7,168.6v6.7h-4v-16.9h7.4c1.4,0,2.5,0.2,3.3,0.5c0.8,0.3,1.5,0.9,2.1,1.7c0.5,0.8,0.8,1.8,0.8,2.8
				c0,2-1,3.5-2.9,4.4l3.1,7.5h-4.4l-2.6-6.7H209.7z M209.7,161.4v4.3h2.4c0.8,0,1.4-0.1,1.7-0.2c0.4-0.1,0.7-0.4,1-0.7
				c0.3-0.4,0.4-0.8,0.4-1.3c0-0.5-0.1-0.9-0.4-1.3c-0.3-0.4-0.6-0.6-0.9-0.7c-0.3-0.1-0.9-0.1-1.9-0.1H209.7z"/>
		</g>
	</g>
	<g>
		<g>
			<path class="st3" d="M679.8,139.9c0.1-0.7,0.2-1.4,0.2-2.2c0-6.9-5.6-12.5-12.5-12.5c-0.3,0-0.6,0-0.9,0c0-0.3,0-0.7,0-1
				c0-6.9-5.6-12.5-12.5-12.5c-4.7,0-8.9,2.6-11,6.5c-1.8,0-3.5,0.5-5,1.2c-1.6-0.8-3.4-1.2-5.3-1.2c-6.6,0-11.9,5-12.5,11.5
				c-1.5-0.6-3.2-1-4.9-1c-6.5,0-11.8,4.9-12.4,11.2H679.8z"/>
		</g>
		<g>
			<g>
				<path class="st3" d="M125.1,333.5c0.5-1.1,0.8-2.4,0.8-3.7c0-5.2-4.2-9.4-9.4-9.4c-1.4,0-2.7,0.3-3.9,0.8c0.3-1,0.5-2.1,0.5-3.3
					c0-6.5-5.3-11.8-11.8-11.8c-2,0-3.9,0.5-5.6,1.4c-2.1-7-8.7-12.1-16.4-12.1c-9.5,0-17.1,7.7-17.1,17.1c0,0.5,0,0.9,0.1,1.4
					c-0.4-0.1-0.8-0.1-1.3-0.1c-5.2,0-9.4,4.2-9.4,9.4c0,0.6,0.1,1.1,0.1,1.7c0,0-0.1,0-0.1,0c-4.9,0-9,3.8-9.4,8.6H125.1z"/>
			</g>
		</g>
		<g>
			<g>
				<path class="st3" d="M132.2,152.9c-0.3-0.7-0.4-1.4-0.4-2.1c0-3,2.4-5.4,5.4-5.4c0.8,0,1.5,0.2,2.2,0.5
					c-0.2-0.6-0.3-1.2-0.3-1.9c0-3.8,3.1-6.8,6.8-6.8c1.2,0,2.3,0.3,3.2,0.8c1.2-4,5-7,9.4-7c5.4,0,9.9,4.4,9.9,9.9
					c0,0.3,0,0.5,0,0.8c0.2,0,0.5-0.1,0.7-0.1c3,0,5.4,2.4,5.4,5.4c0,0.3,0,0.6-0.1,1c0,0,0.1,0,0.1,0c2.8,0,5.2,2.2,5.4,5H132.2z"
					/>
			</g>
		</g>
		<g>
			<path class="st3" d="M564.8,228.6c-1.1-2.9-3.2-5.2-5.9-6.6c0.6-1.4,0.9-2.9,0.9-4.6c0-6.7-5.4-12.1-12.1-12.1
				c-0.6,0-1.2,0-1.8,0.1c-1.9-8.5-9.5-14.8-18.5-14.8c-7.9,0-14.7,4.9-17.5,11.8c-1.6-0.7-3.3-1.1-5.1-1.1
				c-6.7,0-12.1,5.4-12.1,12.1c0,0.6,0,1.2,0.1,1.8c-0.8-0.2-1.7-0.3-2.5-0.3c-6.7,0-12.1,5.4-12.1,12.1c0,0.5,0,1,0.1,1.5H564.8z"
				/>
		</g>
		<g>
			<path class="st3" d="M653.3,324.5c-3.7,0-7.2,1.1-10.1,2.9c-2.4-4.3-7-7.2-12.3-7.2c-6.6,0-12.2,4.6-13.7,10.8
				c-3.2-5-8.8-8.3-15.2-8.3c-9.8,0-17.7,7.8-18,17.4c-5.2,2.6-8.8,7.9-8.8,14.1c0,0.5,0,0.9,0.1,1.4h16.8h19.8h56.6
				c2.5-3.3,4.1-7.4,4.1-11.8C672.5,333.1,663.9,324.5,653.3,324.5z"/>
		</g>
	</g>
	<g>
		<g>
			<path class="st4" d="M230.4,96.8c0.3,0.5,0.6,1.2,0.9,1.8c0.8,1.6,1.8,3.3,3.3,4.5c0.5,0.4,1.3,0.6,1.8,1
				c0.2,0.1,0.4,0.3,0.4,0.6c0,0.2-0.2,0.4-0.3,0.5c-2.6,1.5-5.4,2.6-7.5,4.8c-2.2,2.4-3.6,5.3-5.4,7.9c-0.7,0.9-1.2,1.4-2.4,1.2
				c-1.8-0.3-3.5-0.4-5.2-0.3c-0.8,0.1-1.8,0.1-2.5-0.3c-0.8-0.5-0.9-1.7-0.9-2.6c-0.1-1.8-0.6-3.5-0.8-5.2c-0.1-0.4-0.1-0.7,0-1.1
				c0.2-0.7,0.9-0.8,1.5-1.1c0.8-0.3,1.5-0.7,2.3-1c1.5-0.7,3-1.6,4.4-2.5c1.1-0.8,2.2-1.6,3.1-2.6c0.5-0.5,0.9-1,1.3-1.5
				c0.2-0.3,1.1-1.2,1.1-1.6c0.5-0.8,0.9-1.7,1.3-2.6c0.3-0.6,0.6-2,1.5-1.7C229.3,95.4,229.9,96,230.4,96.8z"/>
		</g>
		<g>
			<path class="st0" d="M175.3,229.6C175.3,229.6,175.3,229.6,175.3,229.6c-1,1.2-0.8,2.8,0,4c0.6,0.9,1.6,1.5,2.5,2.1
				c1,0.6,1.8,1.4,2.8,2c2.7,2,5.6,0.4,8.4-0.5c1.9-0.6,3.9-1.1,5.9-1.2c2-0.1,4.1,0.2,6.1-0.1c0.4-0.1,0.9-0.1,1.3-0.3
				c1.6-0.8,0.3-2.8-0.3-3.8c-0.9-1.4-1.1-3.1-1.1-4.8c0-1.2,0.7-2.6,0.2-3.8c-0.6-1.5-3.5-0.6-4.6-0.5c-1.3,0-2.4,0.6-3.6,1
				c-1.2,0.4-2.4,0.8-3.5,1.3c-1.8,0.7-3.7,1.4-5.7,1.7c-1.7,0.2-3.3,0.5-5,1C177.4,228,176.1,228.6,175.3,229.6z"/>
		</g>
		<g>
			<path class="st0" d="M141.7,359.8c0.2-0.1,0.4-0.2,0.6-0.3c0.5-0.2,1-0.2,1.4-0.2c1,0,2,0.3,2.9,0.3c2.1,0.1,4-0.9,5.9-1.9
				c0.6-0.3,0.7-0.7,0.7-1.3c0-0.6-0.1-1.1-0.4-1.6c-0.5-0.8-1.3-1.5-2.2-1.9c-0.9-0.4-1.9-0.5-2.7-1.2c-0.6-0.5-1-0.4-1.6,0.1
				c-0.6,0.5-0.9,1.1-1.1,1.8c-0.2,0.7-0.3,1.5-0.8,2.1c-0.4,0.5-1,0.7-1.6,0.9c-0.7,0.2-1.3,0.6-1.8,1c-0.4,0.4-0.7,0.9-0.9,1.4
				c-0.2,0.5,0.3,0.8,0.8,0.8C141.2,360,141.4,359.9,141.7,359.8z"/>
		</g>
		<g>
			<path class="st5" d="M105.5,191c0.7,0.4,1.1,1.1,1.5,1.7c0.6,0.9,1.1,1.7,1.4,2.8c0.2,0.5,0.3,1.1,0.2,1.6
				c-0.2,0.7-0.8,1-1.4,1.3c-1.3,0.7-2.7,0.8-4,1.4c-0.7,0.3-1.2,0.7-1.7,1.4c-0.1,0.1-0.2,0.2-0.3,0.3c-0.8,0.6-1.3-0.9-1.3-1.5
				c-0.2-0.9,0-1.8,0-2.7c0-0.6-0.3-1.8,0.2-2.2c0.4-0.3,1.3-0.3,1.8-0.3c1.8,0,1.9-1.8,2.1-3.2c0-0.2,0.1-0.4,0.2-0.5
				c0.1-0.2,0.4-0.2,0.6-0.2C105,190.8,105.2,190.8,105.5,191z"/>
		</g>
		<g>
			<path class="st5" d="M195.2,569.2c-1.4-1.1-3.5-0.9-5.1-1.1c-2.7-0.4-5.1-1.8-7.7-2.3c-3.1-0.5-6.9,0.2-9.1,2.5
				c-0.7,0.8-1.5,1.6-2.5,2c-1.4,0.6-3,0.1-4.5,0.1c-1.5,0-3,0.1-4.4,0.8c-1.3,0.6-2.4,1.4-3.5,2.3c-0.7,0.6-2.4,1.7-2.5,2.7
				c0,0.4,0.2,0.8,0.4,1.1c1.2,1.5,3.3,1.7,4.5,3.2c1.2,1.5,2.3,1.3,4.1,1.3c4.1,0.1,7.9-1.6,11.9-2.4c1.1-0.2,2.3-0.3,3.4-0.2
				c1.1,0.2,2,1,3,1.2c0.9,0.2,2.1,0.2,3.1,0.1c1.3-0.1,2.5-0.8,3.6-1.6c1.2-0.9,2.5-1.5,3.7-2.4c1.2-0.8,2.3-1.9,2.7-3.3
				C196.9,571.7,196.4,570.1,195.2,569.2z"/>
		</g>
		<g>
			<path class="st4" d="M233.9,302.8c1.1,1,0.3,4-0.4,4.9c-0.9,1.2-2.7,1.2-4.1,1.5c-2.4,0.5-4.9,1-7.4,1.2c-2,0.2-4.3,0.4-6.3,0.1
				c-2.4-0.4-2.2-3.7-0.7-5c1.2-1.1,3.6-0.5,5.2-0.5c1.6,0,3.2,0,4.8,0c1.6,0,2.7-0.6,4-1.5c1.2-0.7,2.6-1.2,3.9-1.1
				C233.4,302.5,233.7,302.6,233.9,302.8z"/>
		</g>
		<g>
			<path class="st0" d="M529.4,294.6c-0.1,0.1-0.1,0.1-0.2,0.3c-0.1,0.2,0,0.5,0,0.7c0,0.2,0,0.5,0,0.7c-0.1,1.2-0.4,2.4-1,3.4
				c-0.3,0.6-0.9,2.1-0.2,2.6c0.2,0.1,0.4,0.2,0.6,0.2c0.3,0,0.7,0,1,0c0.3,0,0.6,0,0.9,0c0.9,0,1.7-0.3,2.5-0.7
				c0.8-0.4,1.6-0.8,2.4-1.2c1.2-0.6,2.4-1,3.8-1c2,0,4,0,5.9,0.5c0.7,0.2,1.3,0.1,1.4-0.8c0.1-0.6,0-1.2-0.1-1.7
				c-0.1-0.5-0.3-1.1-0.7-1.4c-0.4-0.3-1-0.4-1.5-0.5c-0.8-0.2-1.7-0.4-2.4-0.9c-0.5-0.4-1.1-0.7-1.6-1.1c-0.8-0.5-1.5-0.9-2.4-1
				c-0.5,0-1.1,0-1.6,0.2c-0.6,0.2-1.2,0.5-1.9,0.7c-0.7,0.1-1.3,0.4-2,0.6c-0.5,0.2-1,0.3-1.6,0.3
				C530.4,294.6,529.8,294.3,529.4,294.6z"/>
		</g>
		<g>
			<path class="st5" d="M359.9,132.2c0.1,0.5,0.3,0.9,0.7,1.3c1.5,1.5,3.4,2.3,5.3,3.2c1.2,0.6,2.5,1.3,3.4,2.3c1.1,1.2,1.6,3,3.6,3
				c0.9,0,1.9-0.5,2.2-1.3c0.2-0.6,0.3-1.2,0.5-1.8c0.2-0.5,0.6-0.9,0.7-1.5c0.1-0.8-0.5-1.7-1-2.3c-1.2-1.7-3.7-2.5-5.6-3.3
				c-1.5-0.6-2.6-1.9-3.7-3c-1.2-1-4.2-0.9-5.3,0.2C360,129.8,359.6,131.1,359.9,132.2z"/>
		</g>
		<g>
			<path class="st0" d="M473.7,131.2c0,1.9-0.4,4.6,0.5,6.4c0.5,1,2.1,1,3.1,1.2c2.4,0.4,4.5-0.2,6.4-1.6c1.5-1,2.8-1.9,4.4-2.6
				c0.8-0.3,1.6-0.7,2.4-0.9c1.2-0.3,2.6-0.1,3.7,0c2.8,0.1,4.9-0.9,7.4-1.9c0.9-0.4,1.6-1.1,2-2.1c0.6-1.3,0.5-2.2-0.3-3.3
				c-0.8-1.1-1-2.2-2.4-2.7c-2-0.8-4.4-0.4-6.5-0.4c-1.8,0-3.5-0.1-5.2,0.7c-1.9,0.8-3.7,2.2-5.9,2.5c-1,0.2-2.1,0.1-3.1,0.1
				c-1.5,0-3.1-0.2-4.6,0.1C474.2,126.7,473.7,128.9,473.7,131.2z"/>
		</g>
		<g>
			<path class="st2" d="M569.5,150.8c-0.2-0.1-0.4-0.3-0.6-0.4c-1.3-0.6-2.8-0.8-4.2-0.9c-1.4-0.2-2.9-0.1-4.3,0.5
				c-0.5,0.2-1,0.4-1.5,0.4c-0.4,0-0.8-0.3-1-0.7c-0.1-0.3-0.3-0.6-0.7-0.6c-0.6,0.1-1,0.9-1.2,1.4c-0.4,0.9-0.5,1.8-0.5,2.8
				c0.1,2.1,1.5,3.5,3.7,2.9c1.5-0.4,2.8-1.5,4.3-1.8c1.2-0.3,2.4-0.1,3.6-0.5c0.9-0.3,1.7-0.8,2.3-1.4c0.2-0.2,0.4-0.4,0.5-0.7
				C570.1,151.4,569.8,151,569.5,150.8z"/>
		</g>
		<g>
			<path class="st5" d="M609.9,244.7c-1.2,0.2-1.1,1.6-0.8,2.5c0.3,0.7,0.5,1.5,0.8,2.2c0.9,1.8,2.9,2.6,4.8,2.6
				c2.1,0.1,3.8-0.8,5.1-2.4c0.8-1,1.4-2.2,2-3.3c0.4-0.9,1-1.7,1.9-2.1c0.6-0.3,1.3-0.3,2-0.7c0.6-0.3,1.2-0.8,1.6-1.4
				c0.6-0.9,0.9-2.1,0.9-3.2c0-1,0-2.2-0.5-3.1c-0.7-1.2-2.4-1.1-3.7-1.1c-1.3,0-2.5,0.1-3.5,1c-0.7,0.7-1.5,1.3-2.2,2
				c-0.7,0.6-1.5,1-1.9,1.9c-0.9,1.9-0.6,6-3.7,6C611.7,245.4,611,244.6,609.9,244.7C610,244.6,610,244.7,609.9,244.7z"/>
		</g>
		<g>
			<path class="st4" d="M347.2,587.1c-0.2,0.1-0.4,0.1-0.6,0.1c-0.7,0.2-1.3,0.4-2,0.8c-0.7,0.4-1.4,0.7-2.1,0.9
				c-1.5,0.6-3.1,0.9-4.7,1c-2,0.1-4.1,0.4-6-0.2c-2.6-0.9-3-3.8-3.6-6.1c-0.2-0.9-1-2.6,0.3-3c1.5-0.4,2.9-0.9,4.4-0.9
				c1.5,0,3,0.1,4.5,0.1c2.7,0,5.4,0,8.1,0c0.8,0,1.8-0.1,2.6,0.3c1,0.5,0.4,0.8,0.2,1.8c-0.2,1,0.1,2,0.1,3c0,0.5,0,1-0.3,1.4
				C348,586.8,347.6,586.9,347.2,587.1z"/>
		</g>
		<g>
			<path class="st2" d="M76.9,538.7c0,0.6-0.1,1.2,0.3,1.7c0.3,0.5,0.8,0.7,1.3,0.6c1.3-0.3,2.3-1.3,3.1-2.3c0.4-0.5,0.8-1,1.3-1.4
				c0.6-0.6,1.4-0.7,2.3-0.8c1-0.1,2,0.1,3-0.1c0.8-0.2,1.5-0.7,2.2-1.2c0.3-0.2,0.5-0.4,0.7-0.7c0.1-0.3,0.1-0.6,0.1-0.9
				c-0.1-0.9-0.5-1.8-1.5-2.1c-0.9-0.2-1.9-0.3-2.8-0.2c-0.5,0.1-0.9,0.2-1.4,0.3c-0.5,0.2-0.9,0.4-1.3,0.5c-0.9,0.2-1.8,0-2.7,0
				c-0.9,0-1.8,0.2-2.6,0.5c-0.6,0.2-1,0.8-1.2,1.4c-0.2,0.6-0.4,1.3-0.5,1.9C77.1,536.9,76.9,537.8,76.9,538.7z"/>
		</g>
		<g>
			<path class="st2" d="M29.2,367.1c0.1,0.7,0.6,1.3,1.5,1.5c2.5,0.4,5.2-0.4,7.4-1.4c1.2-0.5,2.7-0.7,3.5-1.8
				c0.4-0.5,0.6-1.2,0.7-1.9c0.1-0.7,0.6-1.8,0.1-2.3c-0.1-0.2-0.4-0.3-0.6-0.4c-0.6-0.3-2.3-0.9-2.3-1.8c-0.1-0.5-0.1-1-0.2-1.4
				c0-0.9-0.3-2-1.4-1.8c-1.6,0.3-3.1,1.4-3.6,3c-0.6,1.9-1.5,3.2-3.2,4.3C29.9,364,28.9,365.5,29.2,367.1z"/>
		</g>
		<g>
			<path class="st4" d="M635.8,391.8c-0.3,0.3-0.3,0.6-0.2,0.9c0.4,2.1,0.8,5.7,3.5,6c2,0.2,4-1.3,5.3-2.7c0.8-0.8,1.2-2,1.2-3.1
				c0.1-0.9,0.1-1.9,0-2.8c0-0.6,0.2-1.7-0.4-2.1c-0.8-0.6-2.2-0.1-3.1,0.1c-1.5,0.4-1.8,1.6-2.9,2.5c-0.5,0.4-1.1,0.6-1.7,0.7
				C637,391.4,636.3,391.4,635.8,391.8C635.8,391.8,635.8,391.8,635.8,391.8z"/>
		</g>
		<g>
			<path class="st4" d="M508,494c-0.8,1.4-1.3,3.5,0,4.5c0.4,0.4,1.1,0.6,1.6,0.8c1.5,0.6,3.1,1.2,4.7,1c1-0.2,2.1-0.6,2.4-1.7
				c0.1-0.3,0.1-0.7,0.2-1c0.2-0.6,0.7-0.9,1.3-1.1c0.7-0.3,1.4-0.6,2-0.9c1.5-0.9,1-3,0.1-4.2c-1.3-1.8-3.8-1.3-5.5-0.5
				c-0.7,0.4-1.3,0.7-2.1,0.6c-0.5,0-0.8,0-1.2,0.3c-0.2,0.2-0.4,0.4-0.7,0.6c-0.6,0.4-1.5-0.1-2,0.5
				C508.5,493.2,508.3,493.5,508,494z"/>
		</g>
		<g>
			<path class="st4" d="M428,423.8c0-0.1,0-0.2,0-0.3c0-0.3-0.1-0.6-0.4-0.8c-0.2-0.2-0.6-0.1-0.9-0.1c-0.4,0-0.7,0-1.1,0.1
				c-0.6,0.1-1,0.6-1.4,1c-0.5,0.4-0.9,0.8-1.4,1.2c-0.8,0.9-2.1,0.6-3.1,0.7c-0.7,0.1-1.5,0.5-1.7,1.2c-0.1,0.5,0,0.9,0,1.4
				c0,0.8-0.2,1.7,0.5,2.3c1.1,1,3,0.3,4.1-0.3c1.2-0.6,1.7-1.5,2.2-2.7c0.1-0.2,0.1-0.4,0.3-0.5c0.2-0.3,0.7-0.4,1-0.6
				c0.4-0.1,0.7-0.4,1.1-0.6C427.8,425.4,428,424.6,428,423.8z"/>
		</g>
		<g>
			<path class="st2" d="M636.8,585.8c0,0.1,0,0.2,0,0.2c-0.1,1.5-0.2,3.7,1.1,4.7c0.5,0.4,1.1,0.6,1.7,0.7c1.2,0.2,2.5,0.3,3.7,0.2
				c1.2,0,2.5-0.1,3.5-0.7c0.6-0.4,0.8-1,1-1.7c0.1-0.7,0.3-1.3,0.4-2c0.1-0.6,0.1-1.2,0.6-1.6c0.9-0.9,2.5-0.4,3.4-1.4
				c0.4-0.4,0.5-1,0.4-1.5c-0.2-1.4-1.1-2.7-2.2-3.6c-1.8-1.4-5.2-1.9-6.7,0.2c-0.5,0.7-0.7,1.6-1,2.4c-0.4,1.1-0.9,2.3-2.2,2.7
				c-0.9,0.3-3-0.5-3.6,0.5C636.9,585.3,636.8,585.6,636.8,585.8z"/>
		</g>
		<g>
			<path class="st4" d="M489.6,355.6c-0.3,0.2-0.5,0.4-0.6,0.7c-0.4,0.6-0.4,1.4-0.8,2.1c-0.4,0.7-1.4,1.4-2.2,0.7
				c-0.2-0.2-0.3-0.4-0.6-0.3c-0.5,0-0.5,0.7-0.5,1.1c0,0.6,0,1.3,0.5,1.7c0.8,0.8,2.8,0.7,3.6,0c0.5-0.5,0.7-1.2,1-1.9
				c0.4-0.9,0.9-1.8,1.1-2.8c0.1-0.5-0.1-1.1-0.6-1.3C490.2,355.4,489.9,355.5,489.6,355.6z"/>
		</g>
		<g>
			<path class="st5" d="M39.2,458.3c1.8,0.9,3.4,1.9,5.1,3c0.7,0.5,1.4,1,1.9,1.7c1,1.2-0.3,2.7,0.2,4.1c0.3,0.8,1.3,1,1.7,1.6
				c0.5,0.8-0.2,1.5-0.8,1.9c-1.4,0.8-3.8,0.7-5.4,0.5c-1.9-0.2-3-1.6-3.5-3.4c-0.3-1.1-0.4-2.2-0.6-3.3c-0.2-1.1-0.7-1.9-1.2-2.9
				c-0.4-0.8-1-2.4-0.7-3.4c0.5-1.1,1.8-0.5,2.5-0.1C38.8,458.1,39,458.2,39.2,458.3z"/>
		</g>
		<g>
			<path class="st5" d="M353.5,356.4c0,0.1-0.1,0.2-0.1,0.3c-0.1,0.9-0.4,1.7-0.6,2.5c-0.1,0.9-0.3,1.9-0.1,2.9
				c0.3,1.4,1.8,1.5,2.9,1.6c2,0.3,4.1,0.1,6.1,0c1.4,0,1.9-0.8,2.3-2c0.6-1.4,1.9-1.6,3.2-2c1.7-0.6,2.7-2,2.5-3.9
				c0-0.4-0.1-0.7-0.3-1c-1.1-1.6-4.4-1.3-6-1c-1.2,0.3-2.3,0.9-3.6,1.2c-1.3,0.3-2.6-0.1-3.9,0
				C355.1,355.2,353.9,355.4,353.5,356.4z"/>
		</g>
	</g>
</g>
</svg>
